<svg width="19" height="16" viewBox="0 0 19 16" fill="none" xmlns="http://www.w3.org/2000/svg">
<g clip-path="url(#clip0_18_2)">
<path d="M16.8096 12.8615H14.9689C14.5804 12.8615 14.2271 12.6366 14.0628 12.2845L8.81738 1.04836C8.45015 0.261708 7.32377 0.284545 6.98872 1.08543L6.06506 3.29336C5.9548 3.5569 5.96253 3.85501 6.08629 4.11249L11.5276 15.4332C11.6941 15.7797 12.0445 16 12.4289 16H17.3802C18.124 16 18.6075 15.2169 18.2742 14.5519L17.7035 13.4134C17.534 13.0751 17.188 12.8615 16.8096 12.8615Z" fill="#82C3FF"/>
<path d="M1.58044 16H3.41359C3.8043 16 4.15922 15.7725 4.32231 15.4174L7.10436 9.361C7.22743 9.09308 7.226 8.78451 7.10045 8.51774L6.23075 6.66982C5.87098 5.90537 4.78405 5.90394 4.42227 6.66744L0.676763 14.5718C0.362381 15.2352 0.846267 16 1.58044 16Z" fill="#CFE8FF"/>
</g>
<defs>
<clipPath id="clip0_18_2">
<rect width="19" height="16" fill="white"/>
</clipPath>
</defs>
</svg>
